<svg width="72" height="72" viewBox="0 0 72 72" fill="none" xmlns="http://www.w3.org/2000/svg">
<g clip-path="url(#clip0_35_56)">
<rect width="72" height="72" fill="white"/>
<path d="M64.9384 30.0264V29.8644C64.9384 29.8362 64.9384 29.8115 64.9339 29.7834C64.962 29.8644 64.9957 29.9364 65.0194 30.0117C65.0621 30.1209 65.0959 30.2356 65.1341 30.3459C65.1341 30.3267 65.1296 30.3076 65.1296 30.2885C65.0768 30.0354 65.0149 29.7834 64.9249 29.5392C64.9102 29.2861 64.8776 29.0431 64.8203 28.8001C64.8247 28.8147 64.8349 28.8282 64.8439 28.8429C64.8293 28.8001 64.8203 28.7574 64.8011 28.7146C64.7921 28.6865 64.782 28.6617 64.773 28.6381C64.7111 28.4806 64.6346 28.3332 64.5446 28.1949C64.4636 28.0756 64.3725 27.9609 64.2679 27.8607C64.215 27.818 64.1722 27.7651 64.134 27.7134C63.9866 27.4895 63.819 27.2892 63.6187 27.1272C63.495 27.0271 63.3566 26.9416 63.1991 26.8696C63.0225 26.7931 62.8414 26.7166 62.6647 26.6412C62.622 26.6221 62.5736 26.603 62.5309 26.5839C63.036 26.6221 63.513 26.765 63.9754 26.9607C64.0665 26.999 64.152 27.0372 64.242 27.08C64.2229 27.0609 64.2038 27.0462 64.1846 27.0327C64.089 26.9709 63.9934 26.9135 63.8989 26.8606C63.4174 26.5985 62.8976 26.4556 62.3486 26.3937C62.1056 26.3656 61.8525 26.3656 61.6185 26.27C61.5375 26.2362 61.4464 26.2227 61.3609 26.198C61.3372 26.1935 61.3181 26.189 61.2945 26.1789C61.1944 26.1552 61.0898 26.1316 60.9896 26.1024V26.0832H62.1293C62.1203 26.0596 62.1101 26.0551 62.1011 26.0551C61.6095 25.9831 61.1235 25.9269 60.6274 25.9741H60.6083C60.4361 25.9887 60.2651 25.9977 60.093 25.9741C60.021 25.9651 59.94 25.9595 59.8691 25.955C59.8646 25.946 59.8646 25.9404 59.8646 25.9359V25.9302C60.237 25.8639 60.6083 25.7919 61.0043 25.7199C60.6083 25.7289 60.2359 25.7536 59.8691 25.82C59.6644 25.8537 59.4641 25.9201 59.2583 25.9482C58.9624 25.9865 58.662 26.0011 58.3661 26.0247C58.9523 25.748 59.5823 25.6242 60.2258 25.5522C60.1065 25.5567 59.9873 25.5522 59.8635 25.5567C59.4203 25.5804 58.977 25.6332 58.5473 25.7525C58.1895 25.8481 57.8509 25.9865 57.5595 26.2194C57.5021 26.2666 57.4358 26.2959 57.3739 26.3341C57.3694 26.3251 57.3649 26.315 57.3547 26.306C57.4886 26.2104 57.6214 26.1057 57.7597 26.0146C57.9026 25.9291 58.0511 25.8481 58.203 25.7761C58.3504 25.7097 58.5079 25.6524 58.6564 25.5905C58.356 25.667 58.0703 25.7716 57.7935 25.91C57.3401 26.1294 56.9734 26.4826 56.592 26.8021C56.5155 26.8685 56.4345 26.936 56.3535 26.9979L56.349 27.0024C56.3209 27.0496 56.2871 27.1025 56.2579 27.1497C56.2196 27.2262 56.1859 27.3117 56.1431 27.3837C56.1195 27.4175 56.0768 27.4411 56.0385 27.4557C55.962 27.4895 55.8765 27.5086 55.8 27.5412C55.7809 27.5502 55.7618 27.5604 55.7426 27.5694C55.6515 27.6166 55.566 27.6695 55.4951 27.7269C55.2667 27.9125 55.1183 28.1656 55.0474 28.4761C55.143 28.2804 55.2713 28.1037 55.4524 27.9462C55.3995 28.1127 55.3612 28.2657 55.314 28.4131C55.2949 28.4705 55.2668 28.5324 55.233 28.5852C55.1374 28.7326 55.0609 28.8901 55.0046 29.0769C55.0811 28.943 55.1475 28.8294 55.2195 28.7146C55.224 28.7191 55.2285 28.7236 55.2341 28.7236C55.2296 28.7574 55.2195 28.7855 55.215 28.8192C55.0485 29.5437 54.9529 30.2739 54.9866 31.0231C55.0012 31.3809 55.0485 31.724 55.1723 32.0536V34.3756C55.1723 35.2059 55.4726 36.0114 56.016 36.6414C56.1499 36.7989 56.2635 36.971 56.3591 37.1521L56.7506 37.9295C57.3851 39.1794 58.6485 39.9612 60.0559 39.9612C61.4576 39.9612 62.7266 39.1794 63.3611 37.9295L63.7526 37.1521C63.8482 36.971 63.963 36.7989 64.0957 36.6414C64.6391 36.0114 64.9395 35.2059 64.9395 34.3756V32.291C64.9541 32.2482 64.9676 32.2055 64.9777 32.1571C65.0925 31.6329 65.0689 31.1075 65.016 30.5832C64.9957 30.3987 64.9665 30.2176 64.9384 30.0264ZM62.6209 30.2694C63.0405 30.284 63.9844 30.4651 63.9844 31.733V34.3756C63.9844 34.9764 63.7695 35.5636 63.3735 36.0215C63.1879 36.2319 63.0304 36.4692 62.901 36.7224L62.5095 37.4952C62.037 38.4301 61.0976 39.0072 60.0536 39.0072C59.0096 39.0072 58.0703 38.4301 57.5978 37.4952L57.2062 36.7224C57.078 36.4692 56.9205 36.2307 56.7338 36.017C56.3378 35.5636 56.1229 34.9775 56.1229 34.3767V32.903C56.1229 32.8411 56.1274 32.7837 56.1274 32.7219C56.1319 32.6881 56.1274 32.6499 56.1364 32.6172V31.5541C56.1364 31.5541 56.2174 30.2761 57.3098 30.2761C57.3098 30.2761 59.031 31.0299 60.138 31.0344C61.0324 31.0366 61.8716 30.761 62.6209 30.2694Z" fill="#D3AC4A"/>
<path d="M63.7594 40.8466C65.5819 41.4631 67.5686 41.7342 69.2359 42.8727C70.2304 43.5522 70.4824 44.6209 70.5746 45.7358C70.6129 46.2016 71.0741 54.2037 71.0606 54.6717C71.0392 55.4119 70.5262 55.9306 69.7815 55.9767C69.5565 55.9902 69.3304 55.9868 69.1054 55.9868C63.3285 55.9868 56.5976 55.9879 50.8207 55.9868C49.4685 55.9868 49.0151 55.5379 49.0309 54.1733C49.0376 53.6209 49.5248 45.5277 49.6305 44.9888C49.8623 43.8177 50.4799 42.8716 51.6195 42.4317C53.1619 41.8377 54.7414 41.3382 56.3951 40.7678L58.9804 47.6866L59.49 43.0617L58.8217 42.3709C58.8082 42.3529 58.7947 42.3349 58.7902 42.3124C58.7092 41.8242 59.0884 41.3776 59.5856 41.3776H60.5295C60.9818 41.3776 61.3339 41.7432 61.3339 42.1774C61.3339 42.2224 61.3339 42.2674 61.3249 42.3124C61.3204 42.3349 61.3114 42.3529 61.2979 42.3709L60.7016 43.0392V43.1742L61.1528 47.7023L63.7594 40.8466Z" fill="#D3AC4A"/>
<path d="M16.8435 30.0252V29.8632C16.8435 29.8351 16.8435 29.8104 16.839 29.7822C16.8671 29.8632 16.9009 29.9352 16.9245 30.0106C16.9672 30.1197 17.001 30.2345 17.0392 30.3447C17.0392 30.3256 17.0347 30.3065 17.0347 30.2874C16.9819 30.0342 16.92 29.7822 16.83 29.5381C16.8154 29.285 16.7827 29.042 16.7254 28.799C16.7299 28.8136 16.74 28.8271 16.749 28.8417C16.7344 28.799 16.7254 28.7562 16.7062 28.7135C16.6972 28.6854 16.6871 28.6606 16.6781 28.637C16.6162 28.4795 16.5397 28.3321 16.4497 28.1937C16.3687 28.0745 16.2776 27.9597 16.173 27.8596C16.1201 27.8169 16.0774 27.764 16.0391 27.7122C15.8917 27.4884 15.7241 27.2881 15.5239 27.1261C15.4001 27.026 15.2617 26.9405 15.1042 26.8685C14.9276 26.792 14.7465 26.7155 14.5699 26.6401C14.5271 26.621 14.4787 26.6019 14.436 26.5827C14.9411 26.621 15.4181 26.7639 15.8805 26.9596C15.9716 26.9979 16.0571 27.0361 16.1471 27.0789C16.128 27.0597 16.1089 27.0451 16.0897 27.0316C15.9941 26.9697 15.8985 26.9124 15.804 26.8595C15.3225 26.5974 14.8027 26.4545 14.2537 26.3926C14.0107 26.3645 13.7576 26.3645 13.5236 26.2689C13.4426 26.2351 13.3515 26.2216 13.266 26.1969C13.2424 26.1924 13.2232 26.1879 13.1996 26.1777C13.0995 26.1541 12.9949 26.1305 12.8947 26.1012V26.0821H14.0344C14.0254 26.0585 14.0152 26.054 14.0062 26.054C13.5146 25.982 13.0286 25.9257 12.5325 25.973H12.5134C12.3412 25.9876 12.1702 25.9966 11.9981 25.973C11.9261 25.964 11.8451 25.9584 11.7742 25.9539C11.7697 25.9449 11.7697 25.9392 11.7697 25.9347V25.9302C12.1421 25.8639 12.5134 25.7919 12.9094 25.7199C12.5134 25.7289 12.141 25.7536 11.7742 25.82C11.5695 25.8537 11.3692 25.9201 11.1634 25.9482C10.8675 25.9865 10.5671 26.0011 10.2712 26.0247C10.8574 25.748 11.4874 25.6242 12.1309 25.5522C12.0116 25.5567 11.8924 25.5522 11.7686 25.5567C11.3254 25.5804 10.8821 25.6332 10.4524 25.7525C10.0946 25.8481 9.756 25.9865 9.46462 26.2194C9.40725 26.2666 9.34087 26.2959 9.279 26.3341C9.2745 26.3251 9.27 26.315 9.25987 26.306C9.39375 26.2104 9.5265 26.1057 9.66487 26.0146C9.80775 25.9291 9.95625 25.8481 10.1081 25.7761C10.2555 25.7097 10.413 25.6524 10.5615 25.5905C10.2611 25.667 9.97537 25.7716 9.69862 25.91C9.24525 26.1294 8.8785 26.4826 8.49712 26.8021C8.42062 26.8685 8.33962 26.936 8.25862 26.9979L8.25412 27.0024C8.226 27.0496 8.19225 27.1025 8.163 27.1497C8.12475 27.2262 8.091 27.3117 8.04825 27.3837C8.02462 27.4175 7.98187 27.4411 7.94362 27.4557C7.86712 27.4895 7.78162 27.5086 7.70512 27.5412C7.686 27.5502 7.66687 27.5604 7.64775 27.5694C7.55662 27.6166 7.47112 27.6695 7.40025 27.7269C7.17187 27.9125 7.02337 28.1656 6.9525 28.4761C7.04812 28.2804 7.17637 28.1037 7.3575 27.9462C7.30462 28.1127 7.26637 28.2657 7.21912 28.4131C7.2 28.4705 7.17187 28.5324 7.13812 28.5852C7.0425 28.7326 6.966 28.8901 6.90975 29.0769C6.98625 28.943 7.05262 28.8294 7.12462 28.7146C7.12912 28.7191 7.13362 28.7236 7.13925 28.7236C7.13475 28.7574 7.12462 28.7855 7.12012 28.8192C6.95362 29.5437 6.858 30.2739 6.89175 31.0231C6.90637 31.3809 6.95362 31.724 7.07737 32.0536V34.3756C7.07737 35.2059 7.37775 36.0114 7.92112 36.6414C8.055 36.7989 8.16862 36.971 8.26425 37.1521L8.65575 37.9295C9.29025 39.1794 10.5536 39.9612 11.961 39.9612C13.3627 39.9612 14.6317 39.1794 15.2662 37.9295L15.6577 37.1521C15.7534 36.971 15.8681 36.7989 16.0009 36.6414C16.5442 36.0114 16.8446 35.2059 16.8446 34.3756V32.291C16.8592 32.2482 16.8727 32.2055 16.8829 32.1571C16.9976 31.6329 16.974 31.1075 16.9211 30.5832C16.9009 30.3965 16.8727 30.2154 16.8435 30.0252ZM14.526 30.2682C14.9456 30.2829 15.8895 30.464 15.8895 31.7319V34.3745C15.8895 34.9752 15.6746 35.5625 15.2786 36.0204C15.093 36.2307 14.9355 36.4681 14.8061 36.7212L14.4146 37.4941C13.9421 38.429 13.0027 39.0061 11.9587 39.0061C10.9147 39.0061 9.97537 38.429 9.50287 37.4941L9.1125 36.7201C8.98425 36.467 8.82675 36.2285 8.64 36.0147C8.244 35.5614 8.02912 34.9752 8.02912 34.3745V32.9007C8.02912 32.8389 8.03362 32.7815 8.03362 32.7196C8.03812 32.6859 8.03362 32.6476 8.04262 32.615V31.5519C8.04262 31.5519 8.12362 30.2739 9.216 30.2739C9.216 30.2739 10.9372 31.0276 12.0442 31.0321C12.9375 31.0344 13.7767 30.7587 14.526 30.2682Z" fill="#D3AC4A"/>
<path d="M15.6656 40.8444C17.4881 41.4609 19.4749 41.732 21.1421 42.8705C22.1366 43.55 22.3886 44.6187 22.4809 45.7336C22.5191 46.1994 22.9804 54.2015 22.9669 54.6695C22.9455 55.4097 22.4325 55.9284 21.6877 55.9745C21.4627 55.988 21.2366 55.9846 21.0116 55.9846C15.2347 55.9846 8.50387 55.9858 2.727 55.9846C1.37475 55.9846 0.921374 55.5357 0.937124 54.1711C0.943874 53.6187 1.431 45.5255 1.53675 44.9866C1.7685 43.8155 2.38612 42.8694 3.52575 42.4295C5.06812 41.8355 6.64762 41.336 8.30137 40.7656L10.8866 47.6844L11.3962 43.0595L10.728 42.3688C10.7145 42.3508 10.701 42.3327 10.6965 42.3102C10.6155 41.822 10.9946 41.3754 11.4919 41.3754H12.4357C12.888 41.3754 13.2401 41.741 13.2401 42.1753C13.2401 42.2203 13.2401 42.2652 13.2311 42.3102C13.2266 42.3327 13.2176 42.3508 13.2041 42.3688L12.6079 43.037V43.172L13.059 47.7001L15.6656 40.8444Z" fill="#D3AC4A"/>
<path d="M40.8904 47.5775V47.4155C40.8904 47.3874 40.8904 47.3627 40.8859 47.3345C40.914 47.4155 40.9477 47.4875 40.9714 47.5629C41.0141 47.672 41.0479 47.7868 41.0861 47.897C41.0861 47.8779 41.0816 47.8588 41.0816 47.8397C41.0287 47.5865 40.9669 47.3345 40.8769 47.0904C40.8622 46.8373 40.8296 46.5943 40.7723 46.3513C40.7767 46.3659 40.7869 46.3794 40.7959 46.394C40.7812 46.3513 40.7722 46.3085 40.7531 46.2658C40.7441 46.2377 40.734 46.2129 40.725 46.1893C40.6631 46.0318 40.5866 45.8844 40.4966 45.746C40.4156 45.6268 40.3245 45.512 40.2199 45.4119C40.167 45.3692 40.1242 45.3163 40.086 45.2645C39.9386 45.0407 39.771 44.8404 39.5707 44.6784C39.447 44.5783 39.3086 44.4928 39.1511 44.4208C38.9745 44.3443 38.7934 44.2678 38.6167 44.1924C38.574 44.1733 38.5256 44.1542 38.4829 44.135C38.988 44.1733 39.465 44.3162 39.9274 44.5119C40.0185 44.5502 40.104 44.5884 40.194 44.6312C40.1749 44.612 40.1557 44.5974 40.1366 44.5839C40.041 44.522 39.9454 44.4647 39.8509 44.4118C39.3694 44.1497 38.8496 44.0068 38.3006 43.9449C38.0576 43.9168 37.8045 43.9168 37.5705 43.8212C37.4895 43.7874 37.3984 43.7739 37.3129 43.7492C37.2892 43.7447 37.2701 43.7402 37.2465 43.73C37.1464 43.7064 37.0418 43.6828 36.9416 43.6535V43.6344H38.0812C38.0722 43.6108 38.0621 43.6063 38.0531 43.6063C37.5615 43.5343 37.0755 43.478 36.5794 43.5253H36.5603C36.3881 43.5399 36.2171 43.5489 36.045 43.5253C35.973 43.5163 35.892 43.5107 35.8211 43.5062C35.8166 43.4972 35.8166 43.4915 35.8166 43.487V43.4803C36.189 43.4139 36.5602 43.3419 36.9562 43.2699C36.5602 43.2789 36.1879 43.3037 35.8211 43.37C35.6164 43.4038 35.4161 43.4702 35.2102 43.4983C34.9144 43.5365 34.614 43.5512 34.3181 43.5748C34.9042 43.298 35.5343 43.1743 36.1778 43.1023C36.0585 43.1068 35.9392 43.1023 35.8155 43.1068C35.3723 43.1304 34.929 43.1833 34.4992 43.3025C34.1415 43.3982 33.8029 43.5365 33.5115 43.7694C33.4541 43.8167 33.3877 43.8459 33.3259 43.8842C33.3214 43.8752 33.3169 43.865 33.3068 43.856C33.4406 43.7604 33.5734 43.6558 33.7117 43.5647C33.8546 43.4792 34.0031 43.3982 34.155 43.3262C34.3024 43.2598 34.4599 43.2024 34.6084 43.1405C34.308 43.217 34.0222 43.3217 33.7455 43.46C33.2921 43.6794 32.9254 44.0327 32.544 44.3522C32.4675 44.4185 32.3865 44.486 32.3055 44.5479L32.301 44.5524C32.2729 44.5997 32.2391 44.6525 32.2099 44.6998C32.1716 44.7763 32.1379 44.8618 32.0951 44.9338C32.0715 44.9675 32.0288 44.9912 31.9905 45.0058C31.914 45.0395 31.8285 45.0587 31.752 45.0913C31.7329 45.1003 31.7137 45.1104 31.6946 45.1194C31.6035 45.1667 31.518 45.2195 31.4471 45.2769C31.2187 45.4625 31.0702 45.7157 30.9994 46.0262C31.095 45.8304 31.2233 45.6538 31.4044 45.4963C31.3515 45.6628 31.3132 45.8158 31.266 45.9632C31.2469 46.0205 31.2187 46.0824 31.185 46.1353C31.0894 46.2827 31.0129 46.4402 30.9566 46.6269C31.0331 46.493 31.0995 46.3794 31.1715 46.2647C31.176 46.2692 31.1805 46.2737 31.1861 46.2737C31.1816 46.3074 31.1715 46.3355 31.167 46.3693C31.0005 47.0938 30.9049 47.8239 30.9386 48.5732C30.9532 48.9309 31.0005 49.274 31.1242 49.6037V51.9257C31.1242 52.7559 31.4246 53.5614 31.968 54.1914C32.1019 54.3489 32.2155 54.521 32.3111 54.7022L32.7026 55.4795C33.3371 56.7294 34.6005 57.5113 36.0079 57.5113C37.4096 57.5113 38.6786 56.7294 39.3131 55.4795L39.7046 54.7022C39.8002 54.521 39.915 54.3489 40.0477 54.1914C40.5911 53.5614 40.8915 52.7559 40.8915 51.9257V49.841C40.9061 49.7983 40.9196 49.7555 40.9297 49.7072C41.0445 49.1829 41.0209 48.6575 40.968 48.1333C40.9477 47.9488 40.9196 47.7677 40.8904 47.5775ZM38.5729 47.8205C38.9925 47.8352 39.9364 48.0163 39.9364 49.2842V51.9268C39.9364 52.5275 39.7215 53.1148 39.3255 53.5727C39.1399 53.783 38.9824 54.0204 38.853 54.2735L38.4637 55.0453C37.9912 55.9802 37.0519 56.5573 36.0079 56.5573C34.9639 56.5573 34.0245 55.9802 33.552 55.0453L33.1605 54.2724C33.0322 54.0193 32.8747 53.7808 32.688 53.567C32.292 53.1137 32.0771 52.5275 32.0771 51.9268V50.453C32.0771 50.3912 32.0816 50.3338 32.0816 50.2719C32.0861 50.2382 32.0816 50.1999 32.0906 50.1673V49.1042C32.0906 49.1042 32.1716 47.8262 33.264 47.8262C33.264 47.8262 34.9853 48.5799 36.0923 48.5844C36.9855 48.5878 37.8247 48.311 38.5729 47.8205Z" fill="#D3AC4A"/>
<path d="M39.7125 58.3966C41.535 59.0131 43.5217 59.2842 45.189 60.4227C46.1835 61.1022 46.4355 62.171 46.5278 63.2859C46.566 63.7516 47.0273 71.7537 47.0138 72.2217C46.9924 72.962 46.4794 73.4806 45.7346 73.5267C45.5096 73.5402 45.2835 73.5369 45.0585 73.5369C39.2816 73.5369 32.5507 73.538 26.7739 73.5369C25.4216 73.5369 24.9682 73.088 24.984 71.7234C24.9907 71.171 25.4779 63.0777 25.5836 62.5389C25.8154 61.3677 26.433 60.4216 27.5726 59.9817C29.115 59.3877 30.6945 58.8882 32.3482 58.3179L34.9335 65.2366L35.4431 60.6117L34.7749 59.921C34.7614 59.903 34.7479 59.885 34.7434 59.8625C34.6624 59.3742 35.0415 58.9276 35.5387 58.9276H36.4826C36.9349 58.9276 37.287 59.2932 37.287 59.7275C37.287 59.7725 37.287 59.8175 37.278 59.8625C37.2735 59.885 37.2645 59.903 37.251 59.921L36.6547 60.5892V60.7242L37.1059 65.2524L39.7125 58.3966Z" fill="#D3AC4A"/>
<path d="M40.8904 12.4741V12.3121C40.8904 12.284 40.8904 12.2592 40.8859 12.2311C40.914 12.3121 40.9477 12.3841 40.9714 12.4595C41.0141 12.5686 41.0479 12.6834 41.0861 12.7936C41.0861 12.7745 41.0816 12.7554 41.0816 12.7362C41.0287 12.4831 40.9669 12.2311 40.8769 11.987C40.8622 11.7339 40.8296 11.4909 40.7722 11.2479C40.7767 11.2625 40.7869 11.276 40.7959 11.2906C40.7812 11.2479 40.7722 11.2051 40.7531 11.1624C40.7441 11.1343 40.734 11.1095 40.725 11.0859C40.6631 10.9284 40.5866 10.781 40.4966 10.6426C40.4156 10.5234 40.3245 10.4086 40.2199 10.3085C40.167 10.2657 40.1242 10.2129 40.086 10.1611C39.9386 9.93725 39.771 9.737 39.5707 9.575C39.447 9.47487 39.3086 9.38938 39.1511 9.31738C38.9745 9.24088 38.7934 9.16437 38.6167 9.089C38.574 9.06987 38.5256 9.05075 38.4829 9.03163C38.988 9.06988 39.465 9.21275 39.9274 9.4085C40.0185 9.44675 40.104 9.485 40.194 9.52775C40.1749 9.50863 40.1557 9.494 40.1366 9.4805C40.041 9.41863 39.9454 9.36125 39.8509 9.30837C39.3694 9.04625 38.8496 8.90337 38.3006 8.8415C38.0576 8.81337 37.8045 8.81337 37.5705 8.71775C37.4895 8.684 37.3984 8.6705 37.3129 8.64575C37.2892 8.64125 37.2701 8.63675 37.2465 8.62662C37.1464 8.603 37.0417 8.57938 36.9416 8.55013V8.52987H38.0812C38.0722 8.50625 38.0621 8.50175 38.0531 8.50175C37.5615 8.42975 37.0755 8.3735 36.5794 8.42075H36.5602C36.3881 8.43538 36.2171 8.44438 36.045 8.42075C35.973 8.41175 35.892 8.40613 35.8211 8.40163C35.8166 8.39263 35.8166 8.387 35.8166 8.3825V8.378C36.189 8.31162 36.5602 8.23962 36.9562 8.16762C36.5602 8.17662 36.1879 8.20137 35.8211 8.26775C35.6164 8.3015 35.4161 8.36788 35.2102 8.396C34.9144 8.43425 34.614 8.44888 34.3181 8.4725C34.9042 8.19575 35.5342 8.072 36.1777 8C36.0585 8.0045 35.9392 8 35.8155 8.0045C35.3722 8.02812 34.929 8.081 34.4992 8.20025C34.1415 8.29587 33.8029 8.43425 33.5115 8.66712C33.4541 8.71437 33.3877 8.74362 33.3259 8.78187C33.3214 8.77287 33.3169 8.76275 33.3067 8.75375C33.4406 8.65813 33.5734 8.5535 33.7117 8.46238C33.8546 8.37688 34.0031 8.29588 34.155 8.22388C34.3024 8.1575 34.4599 8.10012 34.6084 8.03825C34.308 8.11475 34.0222 8.21938 33.7455 8.35775C33.2921 8.57713 32.9254 8.93038 32.544 9.24988C32.4675 9.31625 32.3865 9.38375 32.3055 9.44563L32.301 9.45012C32.2729 9.49737 32.2391 9.55025 32.2099 9.5975C32.1716 9.674 32.1379 9.7595 32.0951 9.8315C32.0715 9.86525 32.0287 9.88888 31.9905 9.9035C31.914 9.93725 31.8285 9.95637 31.752 9.989C31.7329 9.998 31.7137 10.0081 31.6946 10.0171C31.6035 10.0644 31.518 10.1172 31.4471 10.1746C31.2187 10.3602 31.0702 10.6134 30.9994 10.9239C31.095 10.7281 31.2232 10.5515 31.4044 10.394C31.3515 10.5605 31.3132 10.7135 31.266 10.8609C31.2469 10.9183 31.2187 10.9801 31.185 11.033C31.0905 11.1815 31.014 11.339 30.9566 11.5258C31.0331 11.3919 31.0995 11.2782 31.1715 11.1635C31.176 11.168 31.1805 11.1725 31.1861 11.1725C31.1816 11.2062 31.1715 11.2344 31.167 11.2681C30.9994 11.9926 30.9049 12.7227 30.9375 13.4709C30.9521 13.8286 30.9994 14.1718 31.1231 14.5014V16.8234C31.1231 17.6536 31.4235 18.4591 31.9669 19.0891C32.1007 19.2466 32.2144 19.4187 32.31 19.5999L32.7015 20.3772C33.336 21.6271 34.5994 22.409 36.0067 22.409C37.4085 22.409 38.6775 21.6271 39.312 20.3772L39.7035 19.5999C39.7991 19.4187 39.9139 19.2466 40.0466 19.0891C40.59 18.4591 40.8904 17.6536 40.8904 16.8234V14.7399C40.905 14.6971 40.9185 14.6544 40.9286 14.606C41.0434 14.0818 41.0197 13.5564 40.9669 13.0321C40.9477 12.8465 40.9196 12.6654 40.8904 12.4741ZM38.5729 12.7171C38.9925 12.7318 39.9375 12.9129 39.9375 14.1819V16.8245C39.9375 17.4253 39.7226 18.0125 39.3266 18.4704C39.141 18.6807 38.9835 18.9181 38.8541 19.1713L38.4626 19.9441C37.9901 20.879 37.0507 21.4561 36.0067 21.4561C34.9627 21.4561 34.0234 20.879 33.5509 19.9441L33.1594 19.1713C33.0311 18.9181 32.8736 18.6796 32.6869 18.4659C32.2909 18.0125 32.076 17.4264 32.076 16.8256V15.3519C32.076 15.29 32.0805 15.2326 32.0805 15.1708C32.085 15.137 32.0805 15.0988 32.0895 15.0661V14.0008C32.0895 14.0008 32.1705 12.7227 33.2629 12.7227C33.2629 12.7227 34.9841 13.4765 36.0911 13.481C36.9855 13.4844 37.8247 13.2087 38.5729 12.7171Z" fill="#D3AC4A"/>
<path d="M39.7125 23.2943C41.535 23.9108 43.5217 24.182 45.189 25.3205C46.1835 26 46.4355 27.0687 46.5278 28.1836C46.566 28.6493 47.0273 36.6515 47.0138 37.1195C46.9924 37.8597 46.4794 38.3783 45.7346 38.4245C45.5096 38.438 45.2835 38.4346 45.0585 38.4346C39.2816 38.4346 32.5507 38.4357 26.7739 38.4346C25.4216 38.4346 24.9682 37.9857 24.984 36.6211C24.9907 36.0687 25.4779 27.9755 25.5836 27.4366C25.8154 26.2655 26.433 25.3193 27.5726 24.8795C29.115 24.2855 30.6945 23.786 32.3482 23.2156L34.9335 30.1343L35.4431 25.5095L34.7749 24.8187C34.7614 24.8007 34.7479 24.7827 34.7434 24.7602C34.6624 24.272 35.0415 23.8253 35.5387 23.8253H36.4826C36.9349 23.8253 37.287 24.191 37.287 24.6252C37.287 24.6702 37.287 24.7152 37.278 24.7602C37.2735 24.7827 37.2645 24.8007 37.251 24.8187L36.6547 25.487V25.622L37.1059 30.1501L39.7125 23.2943Z" fill="#D3AC4A"/>
<path d="M57.3907 23.1121L57.3919 23.1143C57.6472 23.4102 58.0129 23.5801 58.3965 23.5801C59.1311 23.5801 59.7274 22.9827 59.7274 22.2492C59.7274 21.9466 59.616 21.6462 59.4135 21.4054C55.7392 17.0989 50.9636 13.8916 45.6041 12.1332C45.2644 12.0218 44.9021 12.0488 44.5849 12.2119C44.2699 12.3728 44.0381 12.6473 43.9324 12.9792C43.821 13.3144 43.8469 13.6733 44.0066 13.9894C44.1652 14.3044 44.4375 14.5396 44.7739 14.6521C49.6654 16.2462 54.0281 19.1712 57.3907 23.1121Z" fill="#D3AC4A"/>
<path d="M27.6255 12.1501C27.3105 11.9881 26.9505 11.9588 26.6141 12.0657C21.5437 13.6835 16.9515 16.6186 13.3301 20.5572C12.9746 20.9476 12.8857 21.491 13.1006 21.977C13.3177 22.4686 13.7857 22.7735 14.3224 22.7735C14.6891 22.7735 15.0424 22.6171 15.2899 22.3448C18.5794 18.7583 22.7734 16.0752 27.4151 14.588C27.7537 14.48 28.0305 14.2471 28.1936 13.931C28.3556 13.616 28.386 13.2582 28.2791 12.9241C28.1711 12.5855 27.9394 12.3121 27.6255 12.1501Z" fill="#D3AC4A"/>
<path d="M20.5684 64.9666L20.565 64.9655C18.2857 63.4749 16.2371 61.6591 14.4765 59.5666C14.2234 59.2663 13.8566 59.093 13.4685 59.093C12.9454 59.093 12.4841 59.3889 12.2625 59.8659C12.0431 60.3361 12.114 60.8739 12.447 61.2676C14.3561 63.5334 16.5814 65.5111 19.0597 67.1435C19.3061 67.3055 19.5817 67.3876 19.8562 67.3876C20.0025 67.3876 20.1487 67.364 20.2894 67.3156C20.6685 67.1863 20.9621 66.887 21.096 66.4955C21.2917 65.9229 21.0791 65.3075 20.5684 64.9666Z" fill="#D3AC4A"/>
<path d="M59.7364 59.8669C59.5147 59.3899 59.0524 59.094 58.5304 59.094C58.1434 59.094 57.7766 59.265 57.5235 59.5642C55.5514 61.8997 53.2327 63.8854 50.6329 65.4671C50.2301 65.709 49.9905 66.1309 49.9905 66.6034C49.9905 67.0882 50.2436 67.5191 50.6666 67.7587C50.8714 67.8735 51.0952 67.932 51.318 67.932C51.5542 67.932 51.7894 67.8679 52.002 67.7385C54.8505 66.0116 57.3896 63.8347 59.553 61.2697C59.8837 60.8749 59.9546 60.3371 59.7364 59.8669Z" fill="#D3AC4A"/>
</g>
<defs>
<clipPath id="clip0_35_56">
<rect width="72" height="72" fill="white"/>
</clipPath>
</defs>
</svg>
