<svg width="72" height="72" viewBox="0 0 72 72" fill="none" xmlns="http://www.w3.org/2000/svg">
<g clip-path="url(#clip0_35_36)">
<path d="M36 0C16.1184 0 0 16.1184 0 36C0 55.8816 16.1184 72 36 72C55.8816 72 72 55.8816 72 36C72 16.1184 55.8816 0 36 0ZM59.4675 59.4675C53.1998 65.7366 44.865 69.1875 36 69.1875C27.135 69.1875 18.8016 65.7352 12.5325 59.4675C6.26484 53.1998 2.8125 44.865 2.8125 36C2.8125 27.135 6.26484 18.8016 12.5325 12.5325C18.8002 6.26344 27.135 2.8125 36 2.8125C44.865 2.8125 53.1984 6.26484 59.4675 12.5325C65.7366 18.8002 69.1875 27.135 69.1875 36C69.1875 44.865 65.7352 53.1984 59.4675 59.4675Z" fill="#D3AC4A"/>
<path d="M44.8917 26.5598C44.8917 21.6492 40.9106 17.6681 36 17.6681C31.0894 17.6681 27.1083 21.6492 27.1083 26.5598C27.1083 31.4704 31.0894 35.4515 36 35.4515C40.9106 35.4515 44.8917 31.4704 44.8917 26.5598ZM34.8145 31.3003V27.7453H31.2595C30.6056 27.7453 30.0741 27.2151 30.0741 26.5598C30.0741 25.9045 30.6042 25.3743 31.2595 25.3743H34.8145V21.8193C34.8145 21.1654 35.3447 20.6339 36 20.6339C36.6553 20.6339 37.1855 21.164 37.1855 21.8193V25.3743H40.7405C41.3944 25.3743 41.9259 25.9045 41.9259 26.5598C41.9259 27.2151 41.3958 27.7453 40.7405 27.7453H37.1855V31.3003C37.1855 31.9542 36.6553 32.4857 36 32.4857C35.3447 32.4857 34.8145 31.9556 34.8145 31.3003Z" fill="#D3AC4A"/>
<path d="M48.8067 44.7301C48.0276 44.4671 47.1684 44.7667 46.7128 45.4515L46.6917 45.4839C46.0448 46.4542 46.4639 47.7704 47.5495 48.1965C49.9486 49.1373 51.4069 50.372 51.4069 51.722C51.4069 54.6624 44.4966 57.0559 36.0014 57.0559C27.5062 57.0559 20.5959 54.6638 20.5959 51.722C20.5959 50.372 22.0528 49.1373 24.4505 48.1965C25.5375 47.7704 25.9566 46.4542 25.3097 45.4839C25.3026 45.4726 25.2956 45.4628 25.2886 45.4515C24.833 44.7681 23.9751 44.4671 23.1961 44.7301C18.3656 46.3585 15.262 48.8842 15.262 51.722C15.262 56.6298 24.5475 60.6109 36.0014 60.6109C47.4553 60.6109 56.7408 56.6312 56.7408 51.722C56.7408 48.8842 53.6386 46.3585 48.8081 44.7301H48.8067Z" fill="#D3AC4A"/>
<path d="M38.3611 50.5477C42.6248 44.917 51.1692 32.8472 51.1692 26.5598C51.1692 18.1828 44.3784 11.3906 36 11.3906C27.6216 11.3906 20.8308 18.1814 20.8308 26.5598C20.8308 32.8472 29.3766 44.9184 33.6389 50.5477C34.823 52.1114 37.1756 52.1114 38.3597 50.5477H38.3611ZM24.2241 26.5598C24.2241 20.0559 29.4961 14.7839 36 14.7839C42.5039 14.7839 47.7759 20.0559 47.7759 26.5598C47.7759 33.0637 42.5039 38.3358 36 38.3358C29.4961 38.3358 24.2241 33.0637 24.2241 26.5598Z" fill="#D3AC4A"/>
</g>
<defs>
<clipPath id="clip0_35_36">
<rect width="72" height="72" fill="white"/>
</clipPath>
</defs>
</svg>
