<svg width="35" height="35" viewBox="0 0 35 35" fill="none" xmlns="http://www.w3.org/2000/svg">
<g clip-path="url(#clip0_12_917)">
<path d="M30.1406 0H4.30364C1.9268 0 0 1.92386 0 4.29706V30.0945C0 32.4677 1.9268 34.3916 4.30364 34.3916H30.1406C32.5174 34.3916 34.4442 32.4677 34.4442 30.0945V4.29706C34.4442 1.92386 32.5174 0 30.1406 0Z" fill="#D3AC4A"/>
<path d="M22.2877 12.0394C22.1923 13.5206 21.532 15.0302 20.6083 16.1599C19.6685 17.3093 18.4415 18.0839 17.2214 18.0839C15.9806 18.0839 14.6597 17.2763 13.6455 16.0888C12.6675 14.9435 11.957 13.4278 11.8778 11.9446L12.3468 11.8397L12.197 11.5649L12.2335 11.5451C12.5387 11.3793 12.5959 11.3482 12.6571 10.8947C12.6711 10.7915 12.6836 10.6577 12.6949 10.5146C12.7087 10.3394 12.7162 10.2208 12.7227 10.1141C12.7319 9.96397 12.7861 9.83958 12.8688 9.74065C12.9663 9.62403 13.093 9.5546 13.2308 9.52943C13.3398 9.5095 13.4522 9.51892 13.5543 9.55333C13.6881 9.59829 13.815 9.68984 13.8992 9.81556C13.9469 9.88658 14.0714 9.93821 14.2375 9.97347C14.518 10.033 14.8719 10.0252 15.2221 9.97422C15.4052 9.94755 15.6848 9.80479 15.9979 9.64488C16.9908 9.13784 18.243 8.49839 19.6673 9.49375C19.9952 9.72292 20.3076 9.96581 20.5994 10.2164C20.9039 10.4778 21.1914 10.7508 21.4562 11.0286C21.4851 11.059 21.5332 11.1132 21.5851 11.1717C21.704 11.3058 21.8572 11.4785 21.9072 11.4937L22.3149 11.6174L22.2877 12.0394ZM19.7758 15.484C20.5023 14.5955 21.0384 13.4401 21.1852 12.2873C21.0307 12.1614 20.8971 12.0109 20.782 11.8811C20.7494 11.8443 20.7191 11.8102 20.6783 11.7675C20.4376 11.5149 20.1769 11.2673 19.9015 11.0308C19.6269 10.795 19.3424 10.5731 19.0534 10.3711C18.1567 9.74445 17.2246 10.2204 16.4857 10.5978C16.0854 10.8022 15.7282 10.9846 15.3735 11.0363C14.9109 11.1036 14.4258 11.1103 14.0146 11.023C13.9169 11.0022 13.8227 10.9761 13.7328 10.9442C13.7291 10.975 13.7251 11.006 13.7209 11.0374C13.6046 11.8979 13.4892 12.0659 12.9981 12.3466C13.1684 13.4384 13.7263 14.5314 14.4612 15.3919C15.2833 16.3545 16.3074 17.0092 17.2214 17.0092C18.1008 17.0092 19.0308 16.3951 19.7758 15.484Z" fill="#FFFFFE"/>
<path d="M19.1405 4.92817C19.8599 5.1505 20.4876 5.44258 20.9158 5.72022C23.9728 7.70217 23.178 9.82151 22.5173 11.5831C22.4409 11.7868 22.3666 11.9851 22.2996 12.1855L22.1527 12.6251L21.6984 12.5444C21.3086 12.4752 21.0102 12.1386 20.7819 11.8811C20.7493 11.8443 20.719 11.8101 20.6783 11.7676C20.4376 11.515 20.1769 11.2674 19.9014 11.0309C19.6268 10.7951 19.3423 10.5732 19.0534 10.3712C18.1567 9.74456 17.2247 10.2205 16.4857 10.5978C16.0854 10.8022 15.7281 10.9847 15.3734 11.0363C14.9108 11.1037 14.4258 11.1103 14.0146 11.023C13.9168 11.0023 13.8226 10.9761 13.7328 10.9443C13.729 10.975 13.725 11.0061 13.7208 11.0375C13.5869 12.029 13.4542 12.101 12.7464 12.4855L12.7099 12.5053L12.0914 12.8411L11.9299 12.1569C11.9089 12.0676 11.7777 11.8527 11.6219 11.5975C11.3835 11.2068 11.0981 10.7392 10.9249 10.2299C10.5517 9.1324 10.6666 7.97531 12.5344 7.25118C12.6568 6.9189 12.806 6.62222 12.9777 6.35818C13.6883 5.26543 14.7576 4.75276 15.9086 4.59582C17.0011 4.44687 18.1643 4.62655 19.1405 4.92817Z" fill="#FFFFFE"/>
<path d="M17.1874 20.0074C16.0168 20.0703 14.79 19.2218 13.4979 17.312C12.5871 17.0214 12.8426 18.3443 12.976 18.9886C13.1852 19.9989 13.3744 21.1812 13.3008 22.8921C13.2977 22.965 14.1471 23.2268 14.1471 24.2402C14.1471 24.6336 14.0036 24.9897 13.7715 25.2476C13.5395 25.5055 13.2189 25.665 12.865 25.665C12.511 25.665 12.1904 25.5054 11.9584 25.2476C11.7263 24.9897 11.5828 24.6335 11.5828 24.2402C11.5828 23.8469 11.7263 23.4906 11.9584 23.2328C12.3296 22.8203 12.7766 22.8852 12.8168 22.6531C13.0471 21.3216 12.6899 19.8498 12.5138 18.9994C12.3251 18.0884 12.2015 17.3167 12.6039 16.9351C11.9431 16.94 11.2853 16.9617 10.3152 18.111C7.74897 21.1517 7.80377 26.1675 7.80461 30.0911H26.6383C26.6383 27.9482 26.7315 24.377 26.2839 22.378C25.9467 20.8718 24.0452 16.7651 22.1365 16.7671L21.6408 18.7654C21.6767 18.7883 21.8693 18.922 21.9034 18.9472C22.4012 19.3168 22.7209 19.9186 22.5753 20.6601C22.3987 21.5593 22.4526 23.6411 22.4749 24.5013C22.4934 25.2179 22.3601 25.99 21.9777 26.583C21.6082 27.156 21.0442 27.4777 20.1455 27.1383C19.8642 27.0325 19.7133 26.6933 19.8085 26.3807C19.9037 26.0681 20.2089 25.9005 20.4902 26.0063C20.818 26.1301 21.0003 26.0492 21.1037 25.8887C21.3501 25.5065 21.4128 24.9883 21.401 24.5317C21.3777 23.6319 21.3213 21.4546 21.5277 20.4039C21.5636 20.2209 21.4614 20.055 21.3082 19.9413C21.2188 19.8749 21.1178 19.8255 21.014 19.7961C20.9097 19.7665 20.8023 19.756 20.7009 19.7675C20.5331 19.7866 20.3854 19.882 20.3357 20.077C20.069 21.1232 19.0818 23.0061 18.6778 23.7767C18.4727 24.168 18.309 24.6546 18.3616 25.117C18.3839 25.3128 18.5095 25.4804 18.8508 25.5449C19.1435 25.6007 19.3402 25.9095 19.29 26.2348C19.2398 26.5601 18.9618 26.7785 18.6691 26.7228C17.7333 26.5459 17.3752 25.9647 17.2956 25.2653C17.2137 24.5455 17.424 23.7944 17.7474 23.1775C18.1335 22.441 19.077 20.6414 19.3036 19.7528C19.4939 19.0066 20.0127 18.6469 20.594 18.5807C20.648 18.5746 21.0114 18.6223 21.0662 18.6216L21.5171 16.8045C21.3481 16.8209 21.1792 16.84 21.0103 16.8586C20.1173 18.183 18.8008 19.9206 17.1874 20.0074Z" fill="#FFFFFE"/>
</g>
<defs>
<clipPath id="clip0_12_917">
<rect width="34.4427" height="34.39" fill="white"/>
</clipPath>
</defs>
</svg>
