<svg width="35" height="35" viewBox="0 0 35 35" fill="none" xmlns="http://www.w3.org/2000/svg">
<path fill-rule="evenodd" clip-rule="evenodd" d="M17.22 0C26.7302 0 34.4404 7.7077 34.4404 17.2175C34.4404 26.7273 26.7302 34.4379 17.22 34.4379C7.70978 34.4379 0 26.7273 0 17.2175C0 7.70777 7.71025 0 17.22 0ZM23.938 10.4521C24.0244 10.3657 24.0729 10.2486 24.0729 10.1264C24.0729 10.0043 24.0243 9.88713 23.9379 9.80077C23.8515 9.71441 23.7344 9.6659 23.6122 9.66592C23.4901 9.66594 23.3729 9.71448 23.2866 9.80087L19.1998 13.8877C19.1135 13.9741 19.0651 14.0912 19.0651 14.2133C19.0651 14.3354 19.1135 14.4525 19.1998 14.5389C19.2863 14.6251 19.4034 14.6735 19.5255 14.6735C19.6476 14.6735 19.7647 14.6251 19.8512 14.5389L23.938 10.4521ZM24.1184 14.029C24.1184 13.8923 24.078 13.7586 24.0021 13.6449C23.9262 13.5312 23.8183 13.4426 23.692 13.3902C23.5657 13.3378 23.4268 13.324 23.2927 13.3506C23.1586 13.3772 23.0354 13.443 22.9387 13.5396C22.842 13.6362 22.776 13.7593 22.7493 13.8933C22.7225 14.0274 22.7361 14.1664 22.7883 14.2927C22.8406 14.4191 22.9291 14.5271 23.0427 14.6031C23.1563 14.6791 23.2899 14.7198 23.4266 14.7199H23.4292C23.5198 14.7198 23.6096 14.7019 23.6933 14.6671C23.777 14.6323 23.853 14.5814 23.917 14.5173C23.981 14.4531 24.0317 14.3769 24.0663 14.2932C24.1008 14.2094 24.1185 14.1196 24.1184 14.029ZM19.0181 10.3109C19.0181 10.4016 19.036 10.4915 19.0707 10.5753C19.1053 10.6591 19.1562 10.7353 19.2204 10.7994C19.2845 10.8636 19.3607 10.9145 19.4445 10.9492C19.5283 10.9839 19.6182 11.0018 19.7089 11.0018H19.7111C19.8476 11.0013 19.9809 10.9605 20.0942 10.8843C20.2074 10.8082 20.2956 10.7002 20.3476 10.574C20.3995 10.4477 20.4129 10.309 20.386 10.1752C20.3591 10.0413 20.2932 9.9185 20.1965 9.82212C20.0999 9.72575 19.9769 9.66017 19.843 9.63368C19.7091 9.60718 19.5704 9.62094 19.4443 9.67324C19.3182 9.72553 19.2105 9.81401 19.1346 9.9275C19.0588 10.041 19.0182 10.1744 19.0181 10.3109ZM8.49524 28.217L11.7049 27.3573L9.89235 20.5922L6.68291 21.4524L8.49524 28.217ZM27.2932 21.8979C27.5067 21.7746 27.6625 21.5716 27.7264 21.3335C27.7902 21.0954 27.7569 20.8416 27.6336 20.6281C27.5104 20.4146 27.3074 20.2588 27.0693 20.1949C26.8311 20.1311 26.5774 20.1644 26.3639 20.2876L21.2936 23.215C21.2236 23.2554 21.1442 23.2766 21.0634 23.2765H15.482C15.4211 23.2772 15.3606 23.2658 15.3041 23.243C15.2476 23.2202 15.1962 23.1864 15.1529 23.1436C15.1095 23.1008 15.0751 23.0498 15.0516 22.9936C15.0282 22.9374 15.0161 22.8771 15.0161 22.8161C15.0161 22.7552 15.0282 22.6949 15.0516 22.6387C15.0751 22.5825 15.1095 22.5315 15.1529 22.4886C15.1962 22.4458 15.2476 22.412 15.3041 22.3892C15.3606 22.3664 15.4211 22.3551 15.482 22.3558H19.3678C19.6129 22.3537 19.8473 22.2549 20.0199 22.0808C20.1925 21.9067 20.2894 21.6715 20.2894 21.4264C20.2894 21.1812 20.1925 20.946 20.0199 20.7719C19.8473 20.5978 19.6129 20.499 19.3678 20.4969H13.6149C13.4047 20.4946 13.1965 20.5382 13.0049 20.6247L11.0799 21.4669L12.3185 26.0892L13.0158 25.7837C13.074 25.7581 13.137 25.7448 13.2006 25.7446H19.8675C20.3676 25.751 20.8598 25.6193 21.2899 25.3639L27.2932 21.8979ZM27.2106 10.6718L25.9881 9.77477L25.8221 8.26641C25.7955 8.02622 25.6774 7.80552 25.4923 7.65018C25.3071 7.49484 25.0693 7.41681 24.8281 7.43231L23.3141 7.53106L22.2177 6.48172C22.0433 6.31404 21.8108 6.22039 21.5689 6.22039C21.327 6.22039 21.0945 6.31404 20.9201 6.48172L19.8237 7.53106L18.3097 7.43231C18.0686 7.41672 17.8307 7.49472 17.6456 7.65008C17.4605 7.80544 17.3424 8.0262 17.316 8.26641L17.1502 9.77477L15.9268 10.6723C15.7316 10.8151 15.5992 11.0279 15.5573 11.2661C15.5153 11.5042 15.5671 11.7494 15.7017 11.9503L16.544 13.2121L16.184 14.686C16.127 14.9208 16.1626 15.1686 16.2835 15.3778C16.4044 15.587 16.6013 15.7416 16.8332 15.8094L18.2893 16.2342L18.9611 17.5952C19.0382 17.7524 19.1577 17.8848 19.3063 17.9775C19.4548 18.0701 19.6264 18.1193 19.8015 18.1193C19.9319 18.1188 20.0608 18.0915 20.1802 18.039L21.5692 17.4285L22.9582 18.039C23.1794 18.1365 23.4297 18.1447 23.6569 18.062C23.8841 17.9792 24.0705 17.812 24.1773 17.5951L24.8492 16.2343L26.3056 15.8095C26.5375 15.7416 26.7342 15.587 26.855 15.3778C26.9758 15.1686 27.0114 14.9209 26.9544 14.6862L26.5939 13.2122L27.4368 11.95C27.5715 11.749 27.6232 11.5037 27.581 11.2655C27.5389 11.0273 27.4061 10.8144 27.2106 10.6718Z" fill="#D3AC4A"/>
</svg>
