<svg width="35" height="35" viewBox="0 0 35 35" fill="none" xmlns="http://www.w3.org/2000/svg">
<g clip-path="url(#clip0_12_893)">
<path fill-rule="evenodd" clip-rule="evenodd" d="M5.06582 0H29.4742C32.2643 0 34.54 2.2757 34.54 5.06582V29.4742C34.54 32.2643 32.2643 34.54 29.4742 34.54H5.06582C2.2757 34.54 0 32.2643 0 29.4742V5.06582C0 2.2757 2.2757 0 5.06582 0Z" fill="#D3AC4A"/>
<path fill-rule="evenodd" clip-rule="evenodd" d="M25.4788 19.5662L25.4833 27.3387C25.4833 27.6444 25.2339 27.8938 24.9282 27.8938H19.9073C19.6016 27.8938 19.3522 27.6444 19.3522 27.3387V23.1126C19.3522 22.8069 19.1029 22.5575 18.7972 22.5575H15.7434C15.4377 22.5575 15.1884 22.8069 15.1884 23.1126V27.3387C15.1884 27.6444 14.9391 27.8938 14.6334 27.8938H9.61246C9.30676 27.8938 9.05737 27.6444 9.05737 27.3387V19.5662L13.1513 15.4023L16.8499 11.6411C16.9583 11.531 17.0913 11.4751 17.2459 11.4751C17.4003 11.4751 17.5333 11.531 17.6416 11.6411L21.3403 15.4023L25.4788 19.5662Z" fill="white"/>
<path fill-rule="evenodd" clip-rule="evenodd" d="M18.064 6.97745L23.7958 12.8064L28.4619 17.5519C28.7822 17.8777 28.8707 18.338 28.694 18.7594C28.5173 19.1808 28.1271 19.4404 27.6701 19.4404H27.6423C27.3332 19.4404 27.0673 19.329 26.8506 19.1085L22.2069 14.3859L18.0285 10.1364C17.8118 9.91606 17.5459 9.80442 17.2368 9.80442C16.9277 9.80442 16.6619 9.91606 16.4451 10.1364L12.2663 14.3859C10.7187 15.96 9.17051 17.5344 7.62287 19.1085L7.57772 19.149C7.38449 19.3194 7.13088 19.4227 6.85306 19.4227C6.24766 19.4227 5.75648 18.9317 5.75648 18.326C5.75648 17.9916 5.90634 17.6922 6.14268 17.4909L10.7489 12.8064L16.4806 6.97745C16.6974 6.75702 16.9632 6.64551 17.2724 6.64551C17.5814 6.64551 17.8474 6.75715 18.064 6.97745Z" fill="white"/>
</g>
<defs>
<clipPath id="clip0_12_893">
<rect width="34.54" height="34.54" fill="white"/>
</clipPath>
</defs>
</svg>
