<svg width="35" height="35" viewBox="0 0 35 35" fill="none" xmlns="http://www.w3.org/2000/svg">
<g clip-path="url(#clip0_12_926)">
<path d="M34.2812 22.9593C34.183 24.7327 34.0395 26.5061 33.8507 28.2794C33.5367 31.2167 31.2164 33.5371 28.2792 33.851C20.9273 34.6372 13.5125 34.6372 6.16056 33.851C3.22334 33.537 0.90295 31.2167 0.588954 28.2794C0.39866 26.5076 0.255115 24.7342 0.158454 22.9593C-0.0522891 19.1361 -0.0522891 15.3041 0.158454 11.4809C0.255115 9.70747 0.39866 7.93415 0.588954 6.16076C0.90295 3.22354 3.22328 0.903141 6.1605 0.589213C13.5124 -0.197055 20.9272 -0.197055 28.2791 0.589213C31.2163 0.903208 33.5367 3.22354 33.8507 6.16076C34.041 7.9326 34.1845 9.70599 34.2812 11.4809C34.492 15.304 34.4906 19.136 34.2812 22.9593Z" fill="#D3AC4A"/>
<path d="M14.0116 12.6064L8.39474 18.221L12.7088 22.5351L14.6642 20.5798V13.5445L15.5229 12.8217L14.0116 12.6064Z" fill="white"/>
<path d="M22.7417 12.2803C22.8836 11.4142 22.7833 10.5258 22.4516 9.71321C21.6699 7.72161 19.9389 6.60453 18.491 7.17097C17.7728 7.45194 17.2653 8.09998 17.0568 9.00174C16.8707 9.91359 16.9606 10.8602 17.3151 11.7207C17.3766 11.8753 17.4462 12.0265 17.5236 12.1739L15.4707 13.9026V27.4158H24.697V13.9185L22.7417 12.2803ZM18.2396 11.5847C18.2124 11.5236 18.1853 11.4601 18.1603 11.3967C17.8694 10.7049 17.7905 9.94232 17.9337 9.20562C18.072 8.60743 18.3869 8.18372 18.8151 8.01381C18.9567 7.95845 19.1073 7.93007 19.2592 7.93C20.1225 7.93 21.1194 8.791 21.6111 10.0372C21.8069 10.524 21.9069 11.0441 21.9056 11.5689L20.093 10.0327L18.2396 11.5847ZM20.5054 14.4147C20.6741 14.4154 20.8422 14.3956 21.0061 14.3558C20.707 14.8651 20.0516 15.0355 19.5423 14.7363C19.2522 14.5659 19.0591 14.2688 19.0213 13.9344C19.4565 14.2347 19.9699 14.4017 20.4986 14.4147H20.5054ZM19.3475 13.0394C19.5455 12.8495 19.8095 12.7439 20.0839 12.7449C20.5008 12.7463 20.8791 12.9893 21.0537 13.368C21.0183 13.3865 20.982 13.4031 20.9449 13.4178C20.4532 13.6172 19.8664 13.4518 19.3407 13.0394H19.3475ZM19.5696 20.3035C19.8428 20.4794 20.1417 20.6117 20.4556 20.6955C20.8157 20.8059 21.1635 20.9532 21.4933 21.135C22.1519 21.5127 22.4812 22.0361 22.4812 22.7052C22.5007 23.1983 22.2751 23.6691 21.8785 23.9628C21.5329 24.2084 21.1274 24.3563 20.7048 24.391V25.1659H19.4496V24.3366C19.2543 24.2946 19.0638 24.2332 18.8808 24.1531C18.5143 24.0031 18.1994 23.7496 17.9745 23.4236C17.7705 23.1056 17.6656 22.7341 17.6732 22.3564H19.1482C19.1249 22.6226 19.2173 22.886 19.402 23.0792C19.6385 23.2542 19.9317 23.335 20.2244 23.3057C20.4281 23.3169 20.63 23.2621 20.7999 23.1494C20.9424 23.0438 21.0217 22.8732 21.0107 22.6962C21.0204 22.5019 20.9361 22.3147 20.7841 22.1932C20.5374 22.0284 20.2669 21.9023 19.9821 21.8193C19.6617 21.716 19.3483 21.5919 19.044 21.4478C18.254 21.058 17.8583 20.5241 17.8567 19.8458C17.8522 19.5233 17.9568 19.2087 18.1536 18.9531C18.3711 18.6791 18.6595 18.4699 18.9874 18.3481C19.1346 18.2903 19.2861 18.2441 19.4406 18.2099V17.3851H20.6958V18.1895C20.9305 18.2229 21.1593 18.2893 21.3755 18.3866C21.7113 18.5236 21.9996 18.756 22.2048 19.0551C22.3985 19.3485 22.4989 19.6937 22.4925 20.0452H21.0153C21.0288 19.8286 20.9459 19.6171 20.7887 19.4675C20.6152 19.3211 20.3923 19.2465 20.1656 19.259C19.9444 19.2471 19.7254 19.3085 19.5425 19.4335C19.3954 19.5366 19.3102 19.7071 19.316 19.8867C19.3294 20.058 19.4236 20.2127 19.5696 20.3035Z" fill="white"/>
</g>
<defs>
<clipPath id="clip0_12_926">
<rect width="34.44" height="34.44" fill="white"/>
</clipPath>
</defs>
</svg>
