<svg width="72" height="72" viewBox="0 0 72 72" fill="none" xmlns="http://www.w3.org/2000/svg">
<g clip-path="url(#clip0_35_29)">
<rect width="72" height="72" fill="white"/>
<path d="M68.625 15.48H17.2913V7.92004C17.2913 7.30129 16.785 6.79504 16.1663 6.79504H7.7175C4.725 6.79504 2.295 9.21379 2.26125 12.195C2.26125 12.2175 2.25 12.24 2.25 12.2625V59.7488C2.25 59.7713 2.26125 59.7825 2.26125 59.805C2.295 62.7863 4.725 65.205 7.7175 65.205H68.625C69.2438 65.205 69.75 64.6988 69.75 64.08V16.605C69.75 15.975 69.2438 15.48 68.625 15.48ZM67.5 62.955H7.7175C5.95125 62.955 4.51125 61.515 4.51125 59.7488C4.51125 58.8938 4.8375 58.0838 5.43375 57.4763C6.0525 56.8688 6.8625 56.5425 7.7175 56.5425H16.1663C16.785 56.5425 17.2913 56.0363 17.2913 55.4175V17.73H67.5V62.955Z" fill="#D3AC4A"/>
<path d="M37.9462 44.325H46.6425V50.9512H37.9462V44.325Z" fill="#D3AC4A"/>
<path d="M29.0475 36.3263V50.9513H35.6962V43.2C35.6962 42.5813 36.2025 42.075 36.8212 42.075H47.7675C48.3862 42.075 48.8925 42.5813 48.8925 43.2V50.9513H55.5412V36.3263C55.5412 35.7075 56.0475 35.2013 56.6662 35.2013H57.0375L42.2887 27.2588L27.54 35.2013H27.9225C28.5412 35.2013 29.0475 35.7075 29.0475 36.3263Z" fill="#D3AC4A"/>
</g>
<defs>
<clipPath id="clip0_35_29">
<rect width="72" height="72" fill="white"/>
</clipPath>
</defs>
</svg>
