<svg width="60" height="72" viewBox="0 0 60 72" fill="none" xmlns="http://www.w3.org/2000/svg">
<path fill-rule="evenodd" clip-rule="evenodd" d="M22.5102 30.7609C22.5093 30.4657 22.5666 30.1733 22.6789 29.9004C22.7913 29.6274 22.9564 29.3793 23.1648 29.1703C23.3732 28.9613 23.6208 28.7954 23.8934 28.6823C24.166 28.5691 24.4583 28.5109 24.7534 28.5109H24.7655C25.2103 28.512 25.6448 28.6448 26.0141 28.8927C26.3834 29.1406 26.671 29.4923 26.8404 29.9036C27.0099 30.3148 27.0537 30.767 26.9663 31.2031C26.8789 31.6392 26.6642 32.0396 26.3493 32.3538C26.0344 32.6679 25.6335 32.8817 25.1972 32.9681C24.7609 33.0544 24.3087 33.0096 23.8979 32.8391C23.4871 32.6687 23.136 32.3803 22.889 32.0104C22.642 31.6405 22.5102 31.2057 22.5102 30.7609ZM37.4969 41.2389C37.4974 41.6842 37.366 42.1196 37.1192 42.4902C36.8724 42.8609 36.5213 43.1501 36.1103 43.3213C35.6993 43.4925 35.2467 43.5381 34.8098 43.4522C34.3729 43.3664 33.9712 43.153 33.6554 42.839C33.3397 42.525 33.1241 42.1245 33.0359 41.6881C32.9477 41.2516 32.9908 40.7988 33.1597 40.3868C33.3287 39.9749 33.6159 39.6222 33.9852 39.3734C34.3545 39.1246 34.7892 38.9908 35.2345 38.9889H35.2464C35.542 38.9886 35.8347 39.0466 36.1078 39.1596C36.3809 39.2726 36.6291 39.4383 36.838 39.6473C37.047 39.8563 37.2128 40.1044 37.3257 40.3775C37.4387 40.6506 37.4967 40.9433 37.4964 41.2389H37.4969ZM21.1319 44.8655C21.3403 45.0755 21.5881 45.2423 21.8613 45.3561C22.1344 45.4699 22.4273 45.5285 22.7232 45.5285C23.0191 45.5285 23.3121 45.4699 23.5852 45.3561C23.8583 45.2423 24.1062 45.0755 24.3145 44.8655L38.8681 30.3088C39.2868 29.8864 39.521 29.3153 39.5194 28.7206C39.5178 28.1259 39.2804 27.556 38.8594 27.136C38.4384 26.7159 37.8681 26.4798 37.2734 26.4795C36.6786 26.4792 36.108 26.7147 35.6866 27.1343L21.1319 41.6811C20.7098 42.1035 20.4726 42.6763 20.4726 43.2734C20.4726 43.8706 20.7098 44.4433 21.1319 44.8657V44.8655ZM30 21.5889C27.1497 21.5895 24.3636 22.4354 21.994 24.0195C19.6244 25.6036 17.7778 27.8548 16.6877 30.4884C15.5976 33.122 15.313 36.0197 15.8698 38.8151C16.4266 41.6105 17.7998 44.178 19.8159 46.1929C21.8319 48.2078 24.4002 49.5796 27.1959 50.1348C29.9916 50.69 32.8892 50.4037 35.5222 49.3121C38.1552 48.2205 40.4053 46.3727 41.9881 44.0022C43.5708 41.6317 44.4151 38.8451 44.4141 35.9948C44.4094 32.1742 42.889 28.5115 40.1866 25.8106C37.4842 23.1098 33.8207 21.5915 30 21.5889ZM30 54.9116C35.0153 54.9067 39.8238 52.9121 43.3699 49.3655C46.916 45.8189 48.9099 41.0101 48.9141 35.9948C48.9141 25.5671 40.4293 17.0882 30 17.0882C19.5724 17.0882 11.0875 25.5671 11.0875 35.9948C11.0875 46.4327 19.5724 54.9116 30 54.9116ZM4.82517 14.6671V38.3959C5.43957 45.2674 8.20211 51.7711 12.7209 56.9842C17.2397 62.1973 23.2853 65.8551 30 67.4389C36.7149 65.8555 42.7607 62.1977 47.2796 56.9846C51.7984 51.7714 54.5608 45.2676 55.1748 38.3959V14.6671C46.1543 13.4081 37.5423 10.0987 30 4.99292C22.458 10.0991 13.8458 13.4086 4.82517 14.6671ZM29.5102 71.9496C29.8333 72.0165 30.1667 72.0165 30.4898 71.9496C38.2515 70.2186 45.2615 66.0639 50.5064 60.0864C55.7513 54.1088 58.9593 46.6181 59.6664 38.6972C59.6715 38.6269 59.6744 38.5667 59.6744 38.4963V12.668C59.6746 12.1124 59.4683 11.5766 59.0958 11.1646C58.7232 10.7525 58.2109 10.4935 57.6581 10.4378C48.1552 9.44608 39.075 5.99387 31.3134 0.421769C30.9308 0.147421 30.4718 -0.00012207 30.001 -0.00012207C29.5302 -0.00012207 29.0712 0.147421 28.6885 0.421769C20.9267 5.99406 11.8462 9.44629 2.34286 10.4378C1.79009 10.4936 1.27771 10.7526 0.90502 11.1646C0.532326 11.5767 0.325846 12.1124 0.32559 12.668V38.4963C0.324891 38.5634 0.328272 38.6305 0.335716 38.6972C1.04245 46.6179 4.24997 54.1086 9.4945 60.0861C14.739 66.0637 21.7488 70.2184 29.5102 71.9496Z" fill="#D3AC4A"/>
</svg>
