<svg width="15" height="14" viewBox="0 0 15 14" fill="none" xmlns="http://www.w3.org/2000/svg">
<path d="M12.601 9.93001C12.4443 9.89963 12.2823 9.91238 12.1323 9.96689C11.9824 10.0214 11.8502 10.1156 11.7499 10.2394C11.6497 10.3632 11.5852 10.5118 11.5635 10.6693C11.5417 10.8269 11.5635 10.9874 11.6265 11.1335C11.9987 11.9679 10.9592 12.7218 10.2217 12.155C10.0961 12.0568 9.94685 11.9929 9.7888 11.9698C9.63074 11.9466 9.46936 11.9651 9.32065 12.0232C9.17195 12.0814 9.04109 12.1772 8.94104 12.3013C8.84099 12.4254 8.77523 12.5734 8.75027 12.7305C8.63789 13.6297 7.34553 13.7801 6.99435 12.9405C6.93126 12.793 6.83065 12.6644 6.70246 12.5675C6.57426 12.4706 6.4229 12.4086 6.26333 12.3878C6.10377 12.367 5.9415 12.3879 5.79255 12.4487C5.64361 12.5094 5.51313 12.6077 5.41401 12.734C4.84685 13.46 3.64404 12.9754 3.78803 12.0798C3.80783 11.9231 3.7857 11.764 3.72386 11.6186C3.66203 11.4732 3.5627 11.3466 3.43594 11.2518C3.30918 11.157 3.1595 11.0972 3.00208 11.0786C2.84466 11.0599 2.6851 11.0831 2.53956 11.1457C1.67038 11.4956 0.881967 10.5055 1.47547 9.79882H1.48601C1.58301 9.67554 1.645 9.52856 1.6655 9.37325C1.68599 9.21794 1.66424 9.06 1.60252 8.91593C1.54079 8.77186 1.44136 8.64694 1.31461 8.55424C1.18786 8.46154 1.03844 8.40444 0.881967 8.38893C0.683973 8.37323 0.497386 8.29032 0.353382 8.15404C0.209379 8.01777 0.116682 7.83639 0.0907822 7.64022C0.064882 7.44404 0.107347 7.24496 0.211081 7.07622C0.314816 6.90749 0.473536 6.77933 0.66072 6.71316C0.81023 6.66165 0.942592 6.57008 1.04326 6.44851C1.14392 6.32693 1.20899 6.18006 1.23131 6.02404C1.25363 5.86803 1.23234 5.7089 1.16978 5.56415C1.10722 5.4194 1.00581 5.29463 0.876699 5.20357C0.119895 4.65955 0.625602 3.50855 1.56151 3.64674C1.71846 3.6779 1.88097 3.66573 2.03148 3.61155C2.18199 3.55737 2.31477 3.46323 2.41547 3.33933C2.51617 3.21542 2.58096 3.06645 2.60283 2.90852C2.6247 2.75059 2.60282 2.58971 2.53956 2.44326C2.16906 1.61063 3.20681 0.854954 3.9443 1.42171C4.06982 1.51998 4.21894 1.58389 4.37687 1.6071C4.53481 1.63032 4.69609 1.61204 4.84476 1.55407C4.99342 1.4961 5.12431 1.40046 5.22446 1.27661C5.32462 1.15276 5.39056 1.005 5.41577 0.847957C5.5299 -0.0529017 6.82051 -0.201587 7.1717 0.636299C7.23478 0.78379 7.33539 0.91234 7.46359 1.00926C7.59179 1.10618 7.74314 1.16812 7.90271 1.18896C8.06228 1.2098 8.22455 1.18883 8.37349 1.1281C8.52244 1.06738 8.65291 0.969014 8.75203 0.842709C9.30164 0.118524 10.5027 0.604813 10.3587 1.49867C10.3386 1.65611 10.3608 1.81605 10.423 1.96212C10.4853 2.10819 10.5855 2.23515 10.7132 2.33001C10.8409 2.42486 10.9917 2.4842 11.15 2.50195C11.3083 2.5197 11.4685 2.49522 11.6142 2.43102C12.4834 2.08117 13.2718 3.07124 12.68 3.77794C12.5795 3.89988 12.5143 4.04693 12.4917 4.20314C12.4691 4.35935 12.4899 4.51874 12.5518 4.66403C12.6136 4.80931 12.7143 4.93494 12.8428 5.02728C12.9712 5.11962 13.1227 5.17514 13.2806 5.18782C13.4792 5.20297 13.6666 5.28579 13.8112 5.42235C13.9558 5.55892 14.0488 5.74091 14.0745 5.93774C14.1003 6.13456 14.0572 6.33422 13.9526 6.50315C13.848 6.67207 13.6882 6.79997 13.5001 6.86534C13.3505 6.91654 13.2181 7.00789 13.1173 7.12931C13.0166 7.25073 12.9514 7.3975 12.9291 7.55345C12.9067 7.70941 12.9281 7.86847 12.9907 8.01312C13.0534 8.15776 13.1549 8.28237 13.2841 8.37319C14.0409 8.9172 13.5352 10.0682 12.601 9.93001Z" fill="#D3AC4A"/>
<path d="M5.83872 9.27099L3.4173 6.66287L4.21273 5.92994L5.93003 7.77888L10.0442 4.30664L10.7448 5.13053L5.83872 9.27099Z" fill="white"/>
</svg>
